<svg xmlns="http://www.w3.org/2000/svg" viewBox="0 0 48 48" fill="none" role="img" aria-label="Sparkefy">
  <!-- Leaf body -->
  <path d="M24 6C16 12 10 20 10 28c0 8 6.3 14 14 14s14-6 14-14C38 20 32 12 24 6z" fill="#0F766E"/>
  <!-- Leaf vein -->
  <path d="M24 12v26" stroke="#99F6E4" stroke-width="1.5" stroke-linecap="round" opacity="0.7"/>
  <path d="M24 20c-4 3-7 7-8 11M24 24c4 3 7 7 8 11" stroke="#99F6E4" stroke-width="1.25" stroke-linecap="round" opacity="0.55"/>
  <!-- Spark accent -->
  <path d="M36 8l1.4 3.6L41 13l-3.6 1.4L36 18l-1.4-3.6L31 13l3.6-1.4L36 8z" fill="#F59E0B"/>
</svg>
